<svg xmlns="http://www.w3.org/2000/svg" width="364.789" height="70.895" viewBox="0 0 364.789 70.895">
  <g id="Сгруппировать_4450" data-name="Сгруппировать 4450" transform="translate(-0.106 -0.253)">
    <g id="Сгруппировать_3590" data-name="Сгруппировать 3590" transform="translate(1.642 2.756)">
      <g id="Контур_5167" data-name="Контур 5167">
        <path id="Контур_5171" data-name="Контур 5171" d="M62.435,52.324s-.172,6.216,19.4,6.718c14.589.374,21.8-.705,26.024-7.412,4.127-6.555,9.925-43.253-17.047-48.2C69.412-.5,51.055,7.648,45.284,15.61c-5.193,7.165-9.294,34.95-19.078,32.706,0,0-7.537-.962-8.1-6.738s17.822-9.411,8.2-25.117a8.674,8.674,0,0,1-2.788,3.914c-2.985,2.5-8,3.207-8,7.308a16.783,16.783,0,0,0-4.115-3.153c-3.668-1.905-8.638-3.736-9.566-6.52,0,0-1.563,8.7,1.394,14.911s10.047,4.007,10.8,14.108C14.648,55.375,16.744,70,43.369,69.8c26.654-.213,49.459,2.645,49.7-10.921" transform="translate(-1.428 -2.407)" fill="#fff"/>
      </g>
    </g>
    <g id="Сгруппировать_3591" data-name="Сгруппировать 3591" transform="translate(22.738 2.084)">
      <g id="Контур_5168" data-name="Контур 5168">
        <path id="Контур_5172" data-name="Контур 5172" d="M87.872,2.848C66.469-1.08,48.113,7.069,42.341,15.032,38.71,20.041,32.8,54.126,19.586,46.455,42.319,64.567,71-5.478,107.534,44.992,111.309,25.028,106.091,6.19,87.872,2.848Z" transform="translate(-19.586 -1.829)" fill="#ff7d00"/>
      </g>
    </g>
    <g id="Сгруппировать_3596" data-name="Сгруппировать 3596" transform="translate(0.106 0.253)">
      <path id="Контур_5173" data-name="Контур 5173" d="M79.245,32.484a1.527,1.527,0,0,0-1.521-1.524h0A1.524,1.524,0,0,0,76.2,32.484a5.331,5.331,0,0,1-10.663,0,1.523,1.523,0,1,0-3.045,0,8.377,8.377,0,0,0,16.753,0Z" transform="translate(9.988 4.715)" fill="#2b2c34"/>
      <path id="Контур_5174" data-name="Контур 5174" d="M110.067,16.472A24.343,24.343,0,0,0,91.648,1.677C83.132,0,75.729-.54,65.156,1.991c-10.21,2.443-17.861,7.016-21.009,12.58a72.7,72.7,0,0,0-4.133,10.641C36.966,34.205,32.36,47.8,26.717,46.5c-.067-.01-6.687-1.1-6.879-5.359-.056-1.247,1.88-2.92,3.588-4.4,2.422-2.095,5.169-4.468,6.557-7.878,1.645-4.037.938-8.459-2.159-13.518a1.524,1.524,0,0,0-2.091-.508,1.465,1.465,0,0,0-.662.854,7.314,7.314,0,0,1-2.3,3.179,17.556,17.556,0,0,1-3.028,1.862c-1.785.942-3.782,2-4.826,3.835a17.064,17.064,0,0,0-2.606-1.709c-.733-.381-1.522-.764-2.312-1.142-2.659-1.284-5.968-2.881-6.511-4.509a1.524,1.524,0,0,0-2.944.211c-.067.374-1.621,9.241,1.523,15.854a12.432,12.432,0,0,0,5.483,5.4c2.666,1.624,4.772,2.906,5.16,8.143.236,3.265.726,10.058,5.276,15.469a22,22,0,0,0,9.337,6.326A45.737,45.737,0,0,0,43.583,71c4.244-.033,8.375.01,12.371.052l.439,0c2.757.03,5.416.058,7.943.058h.029q1.349.038,2.7.037a97.98,97.98,0,0,0,15.651-1.259A18.857,18.857,0,0,0,91.3,66.261a9.773,9.773,0,0,0,3.4-6.32c7.416-.809,11.682-3.1,14.661-7.826,1.658-2.635,3.141-8.653,3.609-14.636C113.4,31.949,113.244,23.818,110.067,16.472ZM61.4,51.466Zm5.57,1.046a1.523,1.523,0,0,0,.751-2.952,8.161,8.161,0,0,0-5.739.785,5.738,5.738,0,0,0-.73.509,1.376,1.376,0,0,0-.256.2,8.414,8.414,0,0,0-2.606,4.46,1.522,1.522,0,0,0,1.087,1.853,1.54,1.54,0,0,0,1.862-1.106,6.113,6.113,0,0,1,.833-1.959A24,24,0,0,0,70.7,58.885,42.492,42.492,0,0,0,81.33,60.679c1.021.052,2.01.073,2.956.073h.026a62.008,62.008,0,0,0,7.211-.422c-.774,3.374-3.711,5.416-9.391,6.569-6.5,1.316-15.545,1.218-26.036,1.106-3.029-.033-6.133-.066-9.325-.066q-1.6,0-3.221.013c-11.1.081-18.913-2.479-23.245-7.631-3.419-4.07-4.214-9-4.564-13.728-.5-6.806-3.891-8.868-6.662-10.553a9.5,9.5,0,0,1-4.275-4.1C3.185,28.538,3.057,24.185,3.2,21.351a26.62,26.62,0,0,0,5.494,3.117c.778.375,1.514.73,2.2,1.086a15.318,15.318,0,0,1,3.7,2.836,1.522,1.522,0,0,0,2.645-1.027c0-1.537,1.017-2.362,3.161-3.532.522-.294.791-.426,1.012-.536l.036-.017A13.153,13.153,0,0,1,20.8,28.2a1.524,1.524,0,0,0,2.051,1.93,1.551,1.551,0,0,0,.818-.9,16.533,16.533,0,0,0,.568-8.27c.265-.236.716-.6,1.1-.906.465-.375.821-.666,1.09-.9,1.52,3.229,1.758,6.036.731,8.562-1.111,2.727-3.549,4.837-5.731,6.723-2.626,2.27-4.892,4.229-4.627,6.973a8.06,8.06,0,0,0,4.214,6.252,16.85,16.85,0,0,0,9.943,3.325c7.157,0,14.219-4.378,22.037-9.659.316-.2.623-.414.912-.618l1.068-.725C60,36.578,65.206,33.047,70.518,30.706l.123-.055a31.152,31.152,0,0,1,9.778-2.664C90.3,27.13,99.558,32.76,108.689,45.2a20.5,20.5,0,0,1-1.888,5.254l-.023.035c-2.588,4.113-6.414,5.946-13.648,6.54l-.12.016a58.143,58.143,0,0,1-11.56.588c-5-.258-11.833-1.37-16.686-5.132A5.519,5.519,0,0,1,66.969,52.512Zm-30.153-10.9c2.4-4.532,4.353-10.313,6.091-15.454A72.843,72.843,0,0,1,46.8,16.06a18.847,18.847,0,0,1,6.885-6.444,42.466,42.466,0,0,1,8.6-3.721C57.2,10.7,54.636,17.922,52.146,24.932c-3.287,9.253-6.685,18.82-15.859,22.212-.043.019-.085.039-.125.06A16.789,16.789,0,0,1,31.972,48a18.783,18.783,0,0,0,4.561-5.852l.292-.53Zm67.657-10.467a4.823,4.823,0,0,1-4.228.631,32.676,32.676,0,0,0-7.473-4.618,18.265,18.265,0,0,0,7.143-4.844,17.8,17.8,0,0,0,4.627-9.423,23.559,23.559,0,0,1,2.724,4.78,30.622,30.622,0,0,1,1.316,3.686C108.3,25.911,106.771,29.565,104.473,31.146ZM97.747,20.322A15.091,15.091,0,0,1,86.924,25.33a25.725,25.725,0,0,0-7.633-.216,40.314,40.314,0,0,0,7.827-9.067c3.373-4.877,5.435-7.819,12.89-7.648a20.107,20.107,0,0,1,1.755,1.412A14.635,14.635,0,0,1,97.747,20.322ZM84.7,14.378c-2.885,4.172-6.475,9.364-15.249,13.586-2.054.925-4.076,1.959-6.037,3.086a73.775,73.775,0,0,0,6.663-11.709c4.243-8.578,7.6-15.369,16.916-15.369.094,0,.191,0,.286,0,1.214.179,2.383.388,3.546.631l1.025.228a23.827,23.827,0,0,1,3.373,1.017C89.8,6.987,87.415,10.443,84.7,14.378ZM67.43,18.027c-3.417,6.907-7.291,14.735-15.2,20.257-1.364.926-2.709,1.834-4.041,2.7,2.964-4.465,4.874-9.844,6.733-15.073C58.607,15.549,62.086,5.758,72.969,3.666a51.634,51.634,0,0,1,5.161-.343C73.213,6.35,70.405,12.021,67.43,18.027Zm38.738,15.52a12.623,12.623,0,0,0,3.741-4.716,50.24,50.24,0,0,1,.064,7.878l-.043.536c-.106,1.356-.265,2.72-.475,4.07a65.107,65.107,0,0,0-5.886-6.585A7.714,7.714,0,0,0,106.168,33.548Z" transform="translate(-0.106 -0.253)" fill="#2b2c34"/>
    </g>
    <g id="Гигант_суши" data-name="Гигант суши" transform="translate(134.999 19.983)" style="isolation: isolate">
      <g id="Сгруппировать_3597" data-name="Сгруппировать 3597" style="isolation: isolate">
        <path id="Контур_5175" data-name="Контур 5175" d="M133.4,21.836H121.791l.034,19.8h-5.611v-24.4h17.219Z" transform="translate(-116.213 -17.235)" fill="#2b2c34"/>
        <path id="Контур_5176" data-name="Контур 5176" d="M132.023,22.095h5.4V33.247l9.132-11.152h4.984V40.846h-5.4V29.694l-9.1,11.152h-5.019Z" transform="translate(-113.655 -16.449)" fill="#2b2c34"/>
        <path id="Контур_5177" data-name="Контур 5177" d="M168.346,26.556h-9.621v14.29h-5.4V22.095h15.023Z" transform="translate(-110.209 -16.449)" fill="#2b2c34"/>
        <path id="Контур_5178" data-name="Контур 5178" d="M182.928,23.929q2.335,2.074,2.335,6.255v10.7h-5.089V38.551q-1.534,2.614-5.716,2.614a8.868,8.868,0,0,1-3.747-.733,5.571,5.571,0,0,1-2.421-2.023,5.252,5.252,0,0,1-.838-2.927,4.889,4.889,0,0,1,1.969-4.114q1.967-1.5,6.082-1.5h4.323a3.469,3.469,0,0,0-1.08-2.736,4.764,4.764,0,0,0-3.243-.958,9.43,9.43,0,0,0-2.945.471A7.756,7.756,0,0,0,170.1,27.92l-1.952-3.8a11.783,11.783,0,0,1,3.678-1.673,16.46,16.46,0,0,1,4.409-.593Q180.594,21.855,182.928,23.929ZM178.293,36.86a3.551,3.551,0,0,0,1.535-1.9V33.043H176.1q-3.346,0-3.345,2.195a1.952,1.952,0,0,0,.819,1.657,3.689,3.689,0,0,0,2.247.61A4.735,4.735,0,0,0,178.293,36.86Z" transform="translate(-107.922 -16.487)" fill="#2b2c34"/>
        <path id="Контур_5179" data-name="Контур 5179" d="M186.863,22.095h5.4v7.319h8.156V22.095h5.437V40.846h-5.437V33.84h-8.156v7.007h-5.4Z" transform="translate(-104.782 -16.449)" fill="#2b2c34"/>
        <path id="Контур_5180" data-name="Контур 5180" d="M223.761,26.556h-6.343v14.29h-5.4V26.556h-6.345V22.095h18.089Z" transform="translate(-101.739 -16.449)" fill="#2b2c34"/>
        <path id="Контур_5181" data-name="Контур 5181" d="M235.973,39.926a9.226,9.226,0,0,1-3.729-3.433,9.927,9.927,0,0,1,0-9.968,9.266,9.266,0,0,1,3.729-3.433,11.542,11.542,0,0,1,5.385-1.236,10.441,10.441,0,0,1,5.175,1.236,7.348,7.348,0,0,1,3.225,3.539L245.541,28.9a4.611,4.611,0,0,0-4.219-2.579A4.769,4.769,0,0,0,237.8,27.71a5.125,5.125,0,0,0-1.394,3.8,5.124,5.124,0,0,0,1.394,3.8,4.766,4.766,0,0,0,3.519,1.4,4.564,4.564,0,0,0,4.219-2.58l4.217,2.3a7.488,7.488,0,0,1-3.225,3.485,10.325,10.325,0,0,1-5.175,1.256A11.516,11.516,0,0,1,235.973,39.926Z" transform="translate(-97.656 -16.487)" fill="#2b2c34"/>
        <path id="Контур_5182" data-name="Контур 5182" d="M268.9,22.095,260.431,42a9.8,9.8,0,0,1-3.188,4.565,7.811,7.811,0,0,1-4.583,1.323,9.531,9.531,0,0,1-2.894-.452,6.389,6.389,0,0,1-2.334-1.255l1.987-3.869a4.655,4.655,0,0,0,1.446.871,4.5,4.5,0,0,0,1.62.314,2.878,2.878,0,0,0,1.814-.54,4.586,4.586,0,0,0,1.255-1.795l.07-.175L247.5,22.095h5.611l5.263,12.721,5.3-12.721Z" transform="translate(-94.982 -16.449)" fill="#2b2c34"/>
        <path id="Контур_5183" data-name="Контур 5183" d="M296.776,22.095V40.846H268.162V22.095h5.4v14.29H279.8V22.095h5.4v14.29h6.169V22.095Z" transform="translate(-91.628 -16.449)" fill="#2b2c34"/>
        <path id="Контур_5184" data-name="Контур 5184" d="M297.291,22.095h5.4V33.247l9.132-11.152h4.985V40.846h-5.4V29.694l-9.1,11.152h-5.019Z" transform="translate(-86.915 -16.449)" fill="#2b2c34"/>
      </g>
    </g>
  </g>
</svg>
